<?xml version="1.0" encoding="UTF-8" standalone="no"?>
<svg
   xmlns:dc="http://purl.org/dc/elements/1.1/"
   xmlns:cc="http://creativecommons.org/ns#"
   xmlns:rdf="http://www.w3.org/1999/02/22-rdf-syntax-ns#"
   xmlns:svg="http://www.w3.org/2000/svg"
   xmlns="http://www.w3.org/2000/svg"
   viewBox="0 0 379.85333 300.12"
   height="300.12"
   width="379.85333"
   xml:space="preserve"
   id="svg2"
   version="1.1"><metadata
     id="metadata8"><rdf:RDF><cc:Work
         rdf:about=""><dc:format>image/svg+xml</dc:format><dc:type
           rdf:resource="http://purl.org/dc/dcmitype/StillImage" /></cc:Work></rdf:RDF></metadata><defs
     id="defs6" /><g
     transform="matrix(1.3333333,0,0,-1.3333333,0,300.12)"
     id="g10"><g
       transform="scale(0.1)"
       id="g12"><path
         id="path14"
         style="fill:#040606;fill-opacity:1;fill-rule:nonzero;stroke:none"
         d="m 650.039,775.75 c 0,0 -97.226,407.79 111.68,631.46 72.25,77.36 182.207,110.64 245.061,83.89 53.76,-22.88 62.98,-78.09 39.99,-124.28 -33.32,-66.94 -107.403,-120.67 -174.762,-185.91 -99.801,-96.67 -131.32,-226.031 -97.598,-338.308 25.789,-85.872 192.254,-284.84 549.57,-296.84 0,0 -335.632,125.66 -371.742,347.617 -36.105,221.971 289.832,334.321 220.282,597.741 -69.53,263.43 -415.489,287.5 -585.309,50.83 -169.828,-236.68 -30.777,-692.641 62.828,-766.2" /><path
         id="path16"
         style="fill:#040606;fill-opacity:1;fill-rule:nonzero;stroke:none"
         d="m 1192.31,1096.46 v 0.51 c 0,50.81 39.57,92.43 93.7,92.43 32.18,0 51.58,-8.68 70.22,-24.51 l -24.76,-29.87 c -13.79,11.48 -26.05,18.12 -46.73,18.12 -28.6,0 -51.32,-25.28 -51.32,-55.65 v -0.52 c 0,-32.68 22.47,-56.68 54.13,-56.68 14.3,0 27.06,3.57 37.02,10.73 v 25.53 h -39.58 v 33.96 h 77.62 v -77.63 c -18.38,-15.57 -43.66,-28.34 -76.34,-28.34 -55.66,0 -93.96,39.07 -93.96,91.92" /><path
         id="path18"
         style="fill:#040606;fill-opacity:1;fill-rule:nonzero;stroke:none"
         d="m 1479.55,1099.53 c 19.15,0 30.13,10.21 30.13,25.27 v 0.51 c 0,16.86 -11.75,25.53 -30.9,25.53 h -39.06 v -51.31 z m -79.15,86.8 h 81.7 c 22.73,0 40.34,-6.38 52.09,-18.12 9.96,-9.96 15.32,-24 15.32,-40.86 v -0.5 c 0,-28.86 -15.58,-46.98 -38.3,-55.42 l 43.66,-63.82 h -45.96 l -38.3,57.19 h -30.89 v -57.19 h -39.32 v 178.72" /><path
         id="path20"
         style="fill:#040606;fill-opacity:1;fill-rule:nonzero;stroke:none"
         d="m 1725.94,1096.46 v 0.51 c 0,30.64 -22.47,56.17 -54.13,56.17 -31.66,0 -53.62,-25.02 -53.62,-55.65 v -0.52 c 0,-30.64 22.47,-56.17 54.13,-56.17 31.66,0 53.62,25.02 53.62,55.66 z m -148.86,0 v 0.51 c 0,50.81 40.09,92.43 95.24,92.43 55.15,0 94.72,-41.11 94.72,-91.91 v -0.52 c 0,-50.81 -40.08,-92.43 -95.23,-92.43 -55.16,0 -94.73,41.11 -94.73,91.92" /><path
         id="path22"
         style="fill:#040606;fill-opacity:1;fill-rule:nonzero;stroke:none"
         d="m 1799.21,1084.21 v 102.12 h 39.32 v -101.11 c 0,-29.1 14.55,-44.16 38.55,-44.16 24,0 38.56,14.55 38.56,42.89 v 102.38 h 39.32 v -100.85 c 0,-54.13 -30.39,-80.68 -78.39,-80.68 -48,0 -77.36,26.81 -77.36,79.41" /><path
         id="path24"
         style="fill:#040606;fill-opacity:1;fill-rule:nonzero;stroke:none"
         d="m 2065.51,1096.21 c 19.66,0 31.15,11.74 31.15,27.06 v 0.51 c 0,17.62 -12.25,27.06 -31.91,27.06 h -30.39 v -54.63 z m -70.47,90.12 h 73.02 c 42.64,0 68.43,-25.27 68.43,-61.78 v -0.52 c 0,-41.36 -32.17,-62.8 -72.25,-62.8 h -29.88 v -53.62 h -39.32 v 178.72" /><path
         id="path26"
         style="fill:#040606;fill-opacity:1;fill-rule:nonzero;stroke:none"
         d="m 2165.6,1186.33 h 134.81 v -34.97 h -95.75 v -36.26 h 84.27 v -34.98 h -84.27 v -37.54 h 97.03 v -34.97 H 2165.6 v 178.72" /><path
         id="path28"
         style="fill:#040606;fill-opacity:1;fill-rule:nonzero;stroke:none"
         d="m 1289.42,849.531 c 19.15,0 30.13,10.207 30.13,25.27 v 0.508 c 0,16.863 -11.74,25.531 -30.9,25.531 h -39.07 v -51.309 z m -79.16,86.797 h 81.71 c 22.72,0 40.34,-6.379 52.09,-18.117 9.95,-9.961 15.32,-24 15.32,-40.859 v -0.5 c 0,-28.864 -15.57,-46.981 -38.3,-55.422 l 43.66,-63.821 h -45.96 l -38.3,57.192 h -30.9 v -57.192 h -39.32 v 178.719" /><path
         id="path30"
         style="fill:#040606;fill-opacity:1;fill-rule:nonzero;stroke:none"
         d="m 1535.81,846.461 v 0.508 c 0,30.64 -22.47,56.172 -54.13,56.172 -31.66,0 -53.62,-25.02 -53.62,-55.653 v -0.519 c 0,-30.641 22.46,-56.168 54.13,-56.168 31.66,0 53.62,25.019 53.62,55.66 z m -148.86,0 v 0.508 c 0,50.812 40.09,92.429 95.24,92.429 55.15,0 94.73,-41.109 94.73,-91.91 v -0.519 c 0,-50.809 -40.09,-92.43 -95.24,-92.43 -55.15,0 -94.73,41.109 -94.73,91.922" /><path
         id="path32"
         style="fill:#040606;fill-opacity:1;fill-rule:nonzero;stroke:none"
         d="m 1646.86,828.07 -68.68,108.258 h 45.96 l 42.64,-71.738 43.41,71.738 h 44.68 L 1686.19,828.84 v -71.231 h -39.33 v 70.461" /><path
         id="path34"
         style="fill:#040606;fill-opacity:1;fill-rule:nonzero;stroke:none"
         d="m 1779.38,936.328 h 134.81 v -34.969 h -95.75 v -36.257 h 84.27 v -34.981 h -84.27 v -37.543 h 97.03 v -34.969 h -136.09 v 178.719" /><path
         id="path36"
         style="fill:#040606;fill-opacity:1;fill-rule:nonzero;stroke:none"
         d="m 2029.6,849.531 c 19.14,0 30.13,10.207 30.13,25.27 v 0.508 c 0,16.863 -11.75,25.531 -30.9,25.531 h -39.07 v -51.309 z m -79.16,86.797 h 81.71 c 22.72,0 40.34,-6.379 52.08,-18.117 9.96,-9.961 15.33,-24 15.33,-40.859 v -0.5 c 0,-28.864 -15.57,-46.981 -38.3,-55.422 l 43.66,-63.821 h -45.96 l -38.3,57.192 h -30.9 v -57.192 h -39.32 v 178.719" /></g></g></svg>